<?xml version="1.0" encoding="UTF-8" standalone="no"?>
<svg
   width="600pt"
   height="600pt"
   viewBox="0 0 600 600"
   version="1.1"
   id="svg19"
   xmlns="http://www.w3.org/2000/svg"
   xmlns:svg="http://www.w3.org/2000/svg">
  <defs
     id="defs19" />
  <path
     fill-rule="evenodd"
     fill="rgb(87.0224%, 85.20813%, 88.632202%)"
     fill-opacity="1"
     d="M 288.320312 515.464844 C 400.957031 515.464844 492.824219 474.167969 492.824219 423.535156 C 492.824219 372.902344 400.957031 331.609375 288.320312 331.609375 C 175.675781 331.609375 83.808594 372.902344 83.808594 423.535156 C 83.808594 474.167969 175.675781 515.464844 288.320312 515.464844 "
     id="path1" />
  <path
     fill-rule="evenodd"
     fill="rgb(38.404846%, 37.905884%, 41.040039%)"
     fill-opacity="1"
     d="M 437.839844 428.425781 L 329.566406 342.425781 L 360.84375 378.6875 Z M 437.839844 428.425781 "
     id="path2" />
  <path
     fill-rule="evenodd"
     fill="rgb(49.906921%, 49.465942%, 52.723694%)"
     fill-opacity="1"
     d="M 150.101562 371.113281 L 297.53125 331.609375 L 227.90625 371.113281 Z M 150.101562 371.113281 "
     id="path3" />
  <path
     fill-rule="evenodd"
     fill="rgb(22.514343%, 22.261047%, 23.796082%)"
     fill-opacity="1"
     d="M 227.90625 107.136719 L 262.386719 405.589844 L 360.84375 378.6875 L 360.84375 123.570312 Z M 227.90625 107.136719 "
     id="path4" />
  <path
     fill-rule="evenodd"
     fill="rgb(30.250549%, 30.351257%, 32.429504%)"
     fill-opacity="1"
     d="M 262.386719 405.59375 L 360.84375 378.6875 L 360.84375 297.679688 L 262.386719 150.476562 Z M 262.386719 405.59375 "
     id="path5" />
  <path
     fill-rule="evenodd"
     fill="rgb(38.404846%, 37.905884%, 41.040039%)"
     fill-opacity="1"
     d="M 329.382812 23.570312 C 346.515625 18.890625 358 19.671875 361.289062 24.691406 L 361.292969 24.6875 L 395.449219 67.578125 L 262.386719 150.476562 L 239.21875 141.667969 L 227.90625 107.136719 L 259.777344 64.367188 C 270.984375 49.328125 302.308594 30.96875 329.382812 23.570312 "
     id="path6" />
  <path
     fill-rule="evenodd"
     fill="rgb(38.404846%, 37.905884%, 41.040039%)"
     fill-opacity="1"
     d="M 227.90625 107.136719 L 227.90625 371.113281 L 262.386719 405.589844 L 262.386719 150.476562 Z M 227.90625 107.136719 "
     id="path7" />
  <path
     fill-rule="evenodd"
     fill="rgb(61.308289%, 60.220337%, 63.491821%)"
     fill-opacity="1"
     d="M 227.90625 371.113281 L 150.101562 371.113281 L 264.726562 485.738281 L 262.386719 405.59375 Z M 227.90625 371.113281 "
     id="path8" />
  <path
     fill-rule="evenodd"
     fill="rgb(49.906921%, 49.465942%, 52.723694%)"
     fill-opacity="1"
     d="M 262.386719 405.59375 L 360.84375 378.6875 L 437.839844 428.425781 L 264.730469 485.738281 Z M 262.386719 405.59375 "
     id="path9" />
  <path
     fill-rule="evenodd"
     fill="rgb(17.643738%, 16.757202%, 17.834473%)"
     fill-opacity="1"
     d="M 363.863281 66.910156 C 390.941406 59.511719 403.925781 65.761719 392.714844 80.800781 L 360.84375 123.570312 L 262.386719 150.476562 L 294.257812 107.707031 C 305.46875 92.667969 336.789062 74.308594 363.863281 66.910156 "
     id="path10" />
  <path
     fill-rule="evenodd"
     fill="rgb(24.534607%, 58.677673%, 78.866577%)"
     fill-opacity="1"
     d="M 354.296875 87.078125 C 365.839844 87.808594 368.933594 96.648438 361.210938 106.820312 C 353.488281 116.992188 337.875 124.648438 326.339844 123.917969 C 314.800781 123.1875 311.707031 114.351562 319.429688 104.175781 C 327.152344 94.003906 342.761719 86.347656 354.296875 87.078125 "
     id="path11" />
  <path
     fill-rule="evenodd"
     fill="rgb(61.308289%, 60.220337%, 63.491821%)"
     fill-opacity="1"
     d="M 343.46875 120.539062 C 343.429688 120.46875 343.390625 120.394531 343.351562 120.320312 C 347.617188 118.4375 351.734375 115.910156 355.257812 112.96875 C 355.398438 113.160156 355.527344 113.363281 355.648438 113.574219 L 412.71875 213.324219 C 414.644531 216.6875 413.476562 220.972656 410.113281 222.898438 C 406.75 224.820312 402.464844 223.65625 400.539062 220.292969 Z M 343.46875 120.539062 "
     id="path12" />
  <path
     fill-rule="evenodd"
     fill="rgb(73.667908%, 72.019958%, 75.883484%)"
     fill-opacity="1"
     d="M 412.71875 213.324219 C 414.644531 216.6875 413.476562 220.972656 410.113281 222.898438 C 406.75 224.820312 402.464844 223.65625 400.539062 220.292969 L 381.925781 187.753906 C 385.660156 194.285156 399.832031 190.804688 396.226562 184.5 Z M 412.71875 213.324219 "
     id="path13" />
  <path
     fill-rule="evenodd"
     fill="rgb(73.667908%, 72.019958%, 75.883484%)"
     fill-opacity="1"
     d="M 353.703125 108.199219 C 350.414062 106.15625 349.410156 101.832031 351.453125 98.546875 C 353.5 95.257812 357.820312 94.253906 361.105469 96.296875 L 488.191406 175.785156 C 491.480469 177.832031 492.484375 182.152344 490.441406 185.4375 C 488.398438 188.726562 484.074219 189.734375 480.789062 187.6875 Z M 353.703125 108.199219 "
     id="path14" />
  <path
     fill-rule="evenodd"
     fill="rgb(61.308289%, 60.220337%, 63.491821%)"
     fill-opacity="1"
     d="M 353.703125 108.199219 C 350.414062 106.15625 349.410156 101.832031 351.453125 98.546875 C 353.5 95.257812 357.820312 94.253906 361.105469 96.296875 L 409.632812 126.648438 C 398.40625 119.113281 388.113281 129.726562 394.464844 133.695312 Z M 353.703125 108.199219 "
     id="path15" />
  <path
     fill-rule="evenodd"
     fill="rgb(73.667908%, 72.019958%, 75.883484%)"
     fill-opacity="1"
     d="M 321.199219 117.074219 C 322.53125 113.4375 326.558594 111.570312 330.195312 112.90625 C 333.832031 114.238281 335.699219 118.265625 334.363281 121.902344 L 285.84375 252.988281 C 284.507812 256.625 280.480469 258.492188 276.84375 257.160156 C 273.207031 255.824219 271.34375 251.796875 272.675781 248.164062 Z M 321.199219 117.074219 "
     id="path16" />
  <path
     fill-rule="evenodd"
     fill="rgb(61.308289%, 60.220337%, 63.491821%)"
     fill-opacity="1"
     d="M 321.199219 117.074219 C 322.53125 113.4375 326.558594 111.570312 330.195312 112.90625 C 333.832031 114.238281 335.699219 118.265625 334.363281 121.902344 L 327.722656 139.847656 C 329.566406 133.730469 315.730469 131.847656 313.175781 138.757812 Z M 321.199219 117.074219 "
     id="path17" />
  <path
     fill-rule="evenodd"
     fill="rgb(15.330505%, 8.442688%, 11.915588%)"
     fill-opacity="1"
     d="M 406.28125 199.386719 C 405.800781 198.546875 404.972656 198.113281 403.949219 197.992188 L 404.089844 198.242188 C 406.011719 201.605469 404.847656 205.890625 401.480469 207.8125 C 398.121094 209.738281 393.835938 208.570312 391.910156 205.207031 C 391.511719 206.183594 391.476562 207.132812 391.957031 207.96875 L 399.382812 220.953125 C 401.671875 224.949219 406.78125 226.339844 410.773438 224.054688 C 414.769531 221.769531 416.160156 216.660156 413.875 212.664062 Z M 469.324219 162.410156 C 464.605469 159.460938 456.148438 173.851562 460.867188 176.800781 L 480.082031 188.820312 C 483.976562 191.253906 489.148438 190.042969 491.574219 186.144531 C 494 182.242188 492.789062 177.085938 488.898438 174.65625 Z M 294.472656 233.507812 L 287.089844 253.453125 C 285.496094 257.765625 280.707031 259.992188 276.382812 258.410156 C 272.066406 256.828125 269.824219 252.019531 271.425781 247.699219 L 278.464844 228.675781 C 280.402344 223.449219 296.40625 228.28125 294.472656 233.507812 "
     id="path18" />
  <path
     fill-rule="evenodd"
     fill="rgb(24.534607%, 58.677673%, 78.866577%)"
     fill-opacity="1"
     d="M 368.117188 42.265625 L 357.757812 40.378906 L 347.402344 38.492188 L 352.179688 45.6875 L 356.960938 52.878906 L 362.539062 47.574219 Z M 328.875 50.691406 L 334.449219 45.382812 L 340.03125 40.078125 L 344.808594 47.269531 L 349.585938 54.464844 Z M 328.875 50.691406 "
     id="path19" />
</svg>
